<?xml version="1.0" encoding="utf-8"?>
<!DOCTYPE svg PUBLIC "-//W3C//DTD SVG 1.1//EN" "http://www.w3.org/Graphics/SVG/1.1/DTD/svg11.dtd" [<!ENTITY ns_svg "http://www.w3.org/2000/svg"><!ENTITY ns_xlink "http://www.w3.org/1999/xlink">]>
<svg version="1.1" xmlns="http://www.w3.org/2000/svg" xmlns:xlink="http://www.w3.org/1999/xlink" width="209" height="253" viewBox="-0.116 -0.748 209 253" enable-background="new -0.116 -0.748 209 253" xml:space="preserve">
<path fill="#FFFFFF" d="M0,0v146.704c0,65.801,53.199,105.121,104.63,105.121c50.484,0,104.139-36.843,104.139-105.121V0H0z M200.769,146.704"/>
<path d="M2.031,2.032v144.672c0,38.387,17.677,62.521,32.506,76.006c18.928,17.212,44.476,27.084,70.092,27.084 c49.499,0,102.106-36.131,102.106-103.09V2.032H2.031z M202.799,5.969c0,3.829,0,140.735,0,140.735 c0,64.401-50.578,99.153-98.169,99.153c-24.65,0-49.232-9.498-67.444-26.061c-14.241-12.951-31.218-36.146-31.218-73.093 c0,0,0-136.906,0-140.735C9.79,5.969,198.979,5.969,202.799,5.969z"/>
<rect x="172.871" y="42.358" transform="matrix(0.8842 -0.467 0.467 0.8842 -4.3203 90.7899)" fill="#C20000" width="16.219" height="23.503"/>
<g><path fill="#C20000" d="M95.259,192.663v14.607l-22,14.518c0,0-1.52,1.073-1.895,0.573s0.395-4.698,0.895-6.573 s1.142-4.079,3.375-6.125c2.893-2.649,6.625-7.375,7.875-9.375s2-1.947,2-5.5c0-1.875,0.125-2.14,0.125-2.14L95.259,192.663z"/></g>
<g><path fill="#C20000" d="M113.036,206.55l21.88,14.726c0,0,1.165,0.471,1.53,0.262s0.008-1.515-0.12-2.571 c-0.365-3.028-1.984-8.616-3.237-9.504c-5.023-3.559-6.997-6.527-8.042-8.198c-1.229-1.967-2.611-3.916-2.611-6.736 c0-1.201,0-1.984,0-1.984h-9.399V206.55z"/></g>
<g><path fill="#FFE600" d="M94.541,22.412c0,0-5.292-0.106-5.573,0.459c-0.641,1.288,3.02,0.556,3.52,1.973s4.538,29.225,4.538,29.225 l-1.891,1.984v5.568h10.584V24.538L94.541,22.412z"/></g>
<g><path fill="#F9B385" d="M163.576,62.283c3.309-0.671,4.402-1.422,4.402-1.422v-6.12l9.221-4.176c0,0,1.284-0.639,2.06-0.639 c0.994,0,1.627,0.419,1.988,0.781c0.393,0.393,0.529,1.102,0.164,1.353c-0.292,0.201-7.227,4.392-7.227,4.392l6.068,11.368 l-16.687,8.947L163.576,62.283z"/></g>
<g><path fill="#F9B385" d="M44.894,76.395V61.967c0,0-1.25-0.508-2.125-0.924c-1.568-0.747-2.421-1.513-2.421-1.513v-5.6 c0,0-7.663-6.512-9.538-8.721c-1.03-1.213-1.593-1.443-1.943,0.188c-0.188,0.875-0.258,1.854-0.18,3.658 c0.039,0.904,0.659,1.778-0.198,1.317s-4.357-3.163-6.013-4.382c-1.37-1.008-3-2.438-3.594-2.469 c-0.335-0.018-0.749,0.68-1.156,1.281c-0.656,0.969,0.125,1.406-1.25,3.156c-0.429,0.545-1.086,1.555-0.563,2 c0.152,0.129,2.032,1.205,4.094,2.563c2.297,1.514,4.938,3.469,4.938,3.469s-0.951,0.693-1.313,0.844 c-1.125,0.469-0.969,1.375-0.844,1.938c0.224,1.007-0.531,1.25-1.094,1.906c-0.521,0.608-1.531,1.563-0.031,2.188 c0.284,0.119,7.657,3.312,9.969,4.438C38.884,70.834,44.894,76.395,44.894,76.395z"/></g>
<g><path fill="#F9B385" d="M100.509,59.163c0,0-1.618-1.915-2.406-3.031s-1.844-3.094-1.844-3.094s-2.667,0.463-6.435,0.38 c-4.023-0.088-5.19-0.38-5.19-0.38s-0.656-6.323-1.031-6.781s-1.832-0.578-2.031-0.844c-0.281-0.375,0.467-2.558,0.634-4.408 c0.459-5.092,0.725-11.044,0.959-12.561c0.406-2.625,3.156-4.969,5.688-5.063c1.737-0.064,3.14,0.349,5.11,1.269 s5.108,3.087,6.421,5.846s1.708,5.833,1.625,14.667c-0.046,4.875,0.042,10.083-0.563,12.156 C101.117,58.45,100.509,59.163,100.509,59.163z"/></g>
<path d="M94.134,22.496c0,0,12.806-0.435,20.917,0.958c12.375,2.125,18.999,9.746,21.667,15c5.5,10.833,5.166,12.833,5.166,12.833 s-15.958-0.031-19.875,0.813c-3.645,0.785-5.246,2.564-2.873,5.589c2.061,2.626,7.311,7.973,18.311,8.473s26.13-3.879,26.13-3.879 l-0.025,132.254c0,0-8.542-0.375-13.979-4c-2.975-1.983-5.125-6.188-5.563-7.75c-0.82-2.932-1.125-5.938-1.125-5.938v-64.729 c0,0-0.667-4.5-3-8.333s-10-11.5-10-11.5v100.5h-52.5v-98c0,0-8.382,9.111-10.048,11.611s-1.785,2.861-1.785,6.056 c0,1.333,0,59.271,0,59.271s-0.003,7.897-1.104,10.375c-1.25,2.813-3.607,6.682-10.563,9.75c-4.25,1.875-9,1.604-9,1.604v-131.5 c0,0,4.265,1.877,9.375,3.271c5.5,1.5,14.512,1.887,21.75,0.563c10.479-1.917,19.167-9.625,19.167-9.625l3.708,5.083l5.625-2.667 c0,0,1.167-17.708-0.125-25.792C103.752,28.834,102.3,25.663,94.134,22.496z"/>
<g><path fill="#FFE600" d="M103.972,78.669c6.206,0,13.195-2.352,17.311-5.683s6.858-7.316,6.858-7.316l2.679,1.241 c0,0-1.638,3.37-5.096,6.467c-5.617,5.03-11.822,8.23-21.621,8.23c-11.039,0-16.46-2.875-20.772-5.618 c-6.633-4.22-7.838-9.015-7.838-9.015l2.482-0.718c0,0,1.307,4.05,7.512,7.708S97.505,78.669,103.972,78.669z"/></g>
<g><rect x="102.384" y="81.038" fill="#FFE600" width="2.5" height="109.5"/></g>
<g><rect x="79.759" y="120.288" fill="#FFE600" width="47.75" height="3"/></g>
<g><path d="M26.077,53.444l0.773-0.833c0,0-5.117-3.867-6.307-4.641s-2.591-1.928-2.77-1.214s-0.206,1.333,0.39,1.63 S24.53,52.076,26.077,53.444z"/></g>
<g><path d="M28.874,48.327c-0.479,0.029,0.077,1.882,0.999,2.826c0.649,0.665,2.385,2.474,2.75,3.124 c0.961,1.717,0.343,5.449,1.011,6.782c0.54,1.078,1.847,3.263,3.986,3.153c1.665-0.085,1.428-0.951,0.714-1.309 s-2.809-0.423-3.546-2.88c-0.706-2.354,0.582-4.159-1.572-7.347C31.986,50.858,29.676,48.278,28.874,48.327z"/></g>
<g><path d="M28.668,58.156c0.672,0.525,1.081,2.236,1.867,2.064c0.821-0.18,0.59-1.327-0.172-2.236s-2.187-2.123-2.973-2.138 c-1.352-0.025-2.382,0.197-2.998,0.417c-0.688,0.246-0.835,0.762-0.614,0.958c0.325,0.289,0.553,0.195,1.18,0.074 C25.72,57.148,27.317,57.099,28.668,58.156z"/></g>
<path d="M24.712,59.016c0.733-0.085,1.867,0.32,2.654,1.253s1.818,2.211,1.13,2.531s-0.885-0.295-1.425-0.86 s-1.769-1.843-2.629-1.794c-0.721,0.041-1.055,0.516-1.622,0.516c-0.393,0-0.541-0.393-0.319-0.737S23.016,59.212,24.712,59.016z"/>
<path d="M173.843,56.371c0,0,0.104,3.943-0.396,5.276s-1.673,3.586-3.047,4.125c-0.797,0.313-2.5-0.094-2.349,1.016 c0.143,1.045,0.778,1.333,1.917,1c1.979-0.578,4.729-2.719,5.417-6.125c0.585-2.894,0.327-3.786,0.437-4.125 c0.156-0.484,3.619-2.359,5.188-3.234c1.075-0.6,2.391-1.234,2.042-1.849c-0.294-0.519-0.897-1.062-1.625-0.542 C180.071,52.881,173.843,56.371,173.843,56.371z"/>
<g><path d="M87.446,28.413c-0.078,0.906,1.078,2.156,1.078,2.453c0,0.5-0.558,0.392-0.828,0.234c-0.375-0.219-1.563-1.75-1.563-2.313 c0-0.781,1-1.688,1.313-1.5S87.49,27.911,87.446,28.413z"/></g>
<g><path d="M89.405,29.163c0.542,1.359,1.3,2.059,1.86,1.839c0.703-0.276-0.097-0.974-0.292-1.461s0.089-1.551-0.417-1.941 s-1.316-0.377-1.472,0.032S89.331,28.977,89.405,29.163z"/></g>
<g><path d="M92.931,29.616c0.453,0.859,0.952,1.558,1.75,1.5c0.451-0.033,0.11-0.548-0.104-0.834 c-0.643-0.857-0.312-2.026-0.838-2.357s-1.578-0.35-1.597,0.117S92.698,29.175,92.931,29.616z"/></g>
<g><path d="M96.017,29.833c0.381,0.585,1.021,1.395,1.242,1.371c0.771-0.083,0.492-0.945,0.375-1.198s-0.371-0.985-0.391-1.453 s-0.373-1.18-0.859-1.141s-1.004,0.439-0.906,1.141S95.764,29.444,96.017,29.833z"/></g>
<g><path d="M91.713,35.286c1.733,0.064,3.046,0.918,3.358,1.21c0.427,0.399,0.87,1.245,0.458,1.646c-0.75,0.729-2.728,1.209-4.5,0.917 s-2.646-1.446-2.354-2.458S90.347,35.235,91.713,35.286z"/></g>
</svg>
